<?xml version="1.0" encoding="UTF-8" standalone="no"?>
<!-- Created with Inkscape (http://www.inkscape.org/) -->

<svg
   xmlns:dc="http://purl.org/dc/elements/1.1/"
   xmlns:cc="http://creativecommons.org/ns#"
   xmlns:rdf="http://www.w3.org/1999/02/22-rdf-syntax-ns#"
   xmlns:svg="http://www.w3.org/2000/svg"
   xmlns="http://www.w3.org/2000/svg"
   xmlns:sodipodi="http://sodipodi.sourceforge.net/DTD/sodipodi-0.dtd"
   xmlns:inkscape="http://www.inkscape.org/namespaces/inkscape"
   width="210mm"
   height="297mm"
   id="svg2"
   version="1.1"
   inkscape:version="0.48.3.1 r9886"
   sodipodi:docname="inkscape-path_operations.svg">
  <defs
     id="defs4" />
  <sodipodi:namedview
     id="base"
     pagecolor="#ffffff"
     bordercolor="#666666"
     borderopacity="1.0"
     inkscape:pageopacity="0.0"
     inkscape:pageshadow="2"
     inkscape:zoom="0.25"
     inkscape:cx="-489.24517"
     inkscape:cy="198.41341"
     inkscape:document-units="px"
     inkscape:current-layer="layer1"
     showgrid="false"
     showguides="true"
     inkscape:guide-bbox="true"
     inkscape:window-width="1364"
     inkscape:window-height="737"
     inkscape:window-x="0"
     inkscape:window-y="0"
     inkscape:window-maximized="0">
    <sodipodi:guide
       orientation="1,0"
       position="-319.61226,220.61732"
       id="guide4382" />
    <sodipodi:guide
       orientation="1,0"
       position="-876.81241,452.54834"
       id="guide4384" />
  </sodipodi:namedview>
  <metadata
     id="metadata7">
    <rdf:RDF>
      <cc:Work
         rdf:about="">
        <dc:format>image/svg+xml</dc:format>
        <dc:type
           rdf:resource="http://purl.org/dc/dcmitype/StillImage" />
        <dc:title />
      </cc:Work>
    </rdf:RDF>
  </metadata>
  <g
     inkscape:label="Calque 1"
     inkscape:groupmode="layer"
     id="layer1">
    <path
       sodipodi:type="arc"
       style="fill:#ff0000;fill-opacity:1;fill-rule:nonzero;stroke:#713b0b;stroke-width:3;stroke-linejoin:round;stroke-miterlimit:4;stroke-opacity:0.75294327;stroke-dasharray:none;stroke-dashoffset:125.99994999"
       id="path3894"
       sodipodi:cx="-832"
       sodipodi:cy="188.36218"
       sodipodi:rx="40"
       sodipodi:ry="40"
       d="m -792,188.36218 a 40,40 0 1 1 -80,0 40,40 0 1 1 80,0 z" />
    <path
       transform="translate(34,-37.999999)"
       sodipodi:type="arc"
       style="fill:#ff0000;fill-opacity:1;fill-rule:nonzero;stroke:#713b0b;stroke-width:3;stroke-linejoin:round;stroke-miterlimit:4;stroke-opacity:0.75294327;stroke-dasharray:none;stroke-dashoffset:125.99994999"
       id="path3894-2"
       sodipodi:cx="-832"
       sodipodi:cy="188.36218"
       sodipodi:rx="40"
       sodipodi:ry="40"
       d="m -792,188.36218 a 40,40 0 1 1 -80,0 40,40 0 1 1 80,0 z" />
    <path
       transform="translate(80,-38)"
       sodipodi:type="arc"
       style="fill:#ff0000;fill-opacity:1;fill-rule:nonzero;stroke:#713b0b;stroke-width:3;stroke-linejoin:round;stroke-miterlimit:4;stroke-opacity:0.75294327;stroke-dasharray:none;stroke-dashoffset:125.99994999"
       id="path3894-2-8"
       sodipodi:cx="-832"
       sodipodi:cy="188.36218"
       sodipodi:rx="40"
       sodipodi:ry="40"
       d="m -792,188.36218 a 40,40 0 1 1 -80,0 40,40 0 1 1 80,0 z" />
    <path
       transform="translate(116,-14)"
       sodipodi:type="arc"
       style="fill:#ff0000;fill-opacity:1;fill-rule:nonzero;stroke:#713b0b;stroke-width:3;stroke-linejoin:round;stroke-miterlimit:4;stroke-opacity:0.75294327;stroke-dasharray:none;stroke-dashoffset:125.99994999"
       id="path3894-2-8-4"
       sodipodi:cx="-832"
       sodipodi:cy="188.36218"
       sodipodi:rx="40"
       sodipodi:ry="40"
       d="m -792,188.36218 a 40,40 0 1 1 -80,0 40,40 0 1 1 80,0 z" />
    <path
       transform="translate(122,20)"
       sodipodi:type="arc"
       style="fill:#ff0000;fill-opacity:1;fill-rule:nonzero;stroke:#713b0b;stroke-width:3;stroke-linejoin:round;stroke-miterlimit:4;stroke-opacity:0.75294327;stroke-dasharray:none;stroke-dashoffset:125.99994999"
       id="path3894-2-8-4-3"
       sodipodi:cx="-832"
       sodipodi:cy="188.36218"
       sodipodi:rx="40"
       sodipodi:ry="40"
       d="m -792,188.36218 a 40,40 0 1 1 -80,0 40,40 0 1 1 80,0 z" />
    <path
       transform="translate(100,54)"
       sodipodi:type="arc"
       style="fill:#ff0000;fill-opacity:1;fill-rule:nonzero;stroke:#713b0b;stroke-width:3;stroke-linejoin:round;stroke-miterlimit:4;stroke-opacity:0.75294327;stroke-dasharray:none;stroke-dashoffset:125.99994999"
       id="path3894-2-8-4-3-2"
       sodipodi:cx="-832"
       sodipodi:cy="188.36218"
       sodipodi:rx="40"
       sodipodi:ry="40"
       d="m -792,188.36218 a 40,40 0 1 1 -80,0 40,40 0 1 1 80,0 z" />
    <path
       transform="translate(42,70)"
       sodipodi:type="arc"
       style="fill:#ff0000;fill-opacity:1;fill-rule:nonzero;stroke:#713b0b;stroke-width:3;stroke-linejoin:round;stroke-miterlimit:4;stroke-opacity:0.75294327;stroke-dasharray:none;stroke-dashoffset:125.99994999"
       id="path3894-2-8-4-3-2-7"
       sodipodi:cx="-832"
       sodipodi:cy="188.36218"
       sodipodi:rx="40"
       sodipodi:ry="40"
       d="m -792,188.36218 a 40,40 0 1 1 -80,0 40,40 0 1 1 80,0 z" />
    <path
       transform="translate(2,48)"
       sodipodi:type="arc"
       style="fill:#ff0000;fill-opacity:1;fill-rule:nonzero;stroke:#713b0b;stroke-width:3;stroke-linejoin:round;stroke-miterlimit:4;stroke-opacity:0.75294327;stroke-dasharray:none;stroke-dashoffset:125.99994999"
       id="path3894-2-8-4-3-2-7-5"
       sodipodi:cx="-832"
       sodipodi:cy="188.36218"
       sodipodi:rx="40"
       sodipodi:ry="40"
       d="m -792,188.36218 a 40,40 0 1 1 -80,0 40,40 0 1 1 80,0 z" />
    <path
       style="fill:#ff0000;fill-opacity:1;fill-rule:nonzero;stroke:#713b0b;stroke-width:3;stroke-linejoin:round;stroke-miterlimit:4;stroke-opacity:0.75294327;stroke-dasharray:none;stroke-dashoffset:125.99994999"
       d="M -447 114.375 C -468.55779 114.375 -486.10107 131.42846 -486.9375 152.78125 C -506.21437 155.64845 -521 172.30025 -521 192.375 C -521 201.99312 -517.6253 210.81913 -511.96875 217.71875 C -516.39902 224.15758 -519 231.96841 -519 240.375 C -519 262.46639 -501.09139 280.375 -479 280.375 C -477.59805 280.375 -476.2085 280.29699 -474.84375 280.15625 C -468.29729 293.32392 -454.70311 302.375 -439 302.375 C -423.14683 302.375 -409.44141 293.15378 -402.96875 279.78125 C -396.66378 283.93226 -389.11318 286.375 -381 286.375 C -359.49286 286.375 -341.97535 269.37615 -341.0625 248.09375 C -327.98347 241.51637 -319 228.01304 -319 212.375 C -319 203.69227 -321.76915 195.65082 -326.46875 189.09375 C -325.51712 185.67392 -325 182.09814 -325 178.375 C -325 156.50322 -342.55565 138.72617 -364.34375 138.375 C -370.51335 124.2411 -384.59262 114.375 -401 114.375 C -409.55779 114.375 -417.49549 117.04802 -424 121.625 C -430.50451 117.04802 -438.44221 114.375 -447 114.375 z M -424 187.09375 C -417.66253 191.55319 -409.96235 194.20977 -401.65625 194.34375 C -400.52818 196.92924 -399.15562 199.35861 -397.53125 201.625 C -398.33314 204.5067 -398.80398 207.52059 -398.9375 210.625 C -406.79118 214.57458 -413.19216 221.01949 -417.03125 228.9375 C -423.33622 224.78649 -430.88682 222.375 -439 222.375 C -440.40195 222.375 -441.7915 222.42176 -443.15625 222.5625 C -444.50102 219.86113 -446.13607 217.31166 -448.03125 215 C -443.88092 208.96803 -441.36669 201.73836 -441.0625 193.9375 C -434.78132 193.00325 -428.97173 190.59217 -424 187.09375 z "
       id="path3894-22" />
    <path
       sodipodi:type="arc"
       style="fill:#44aa00;fill-opacity:1;fill-rule:nonzero;stroke:#44aa00;stroke-width:3;stroke-linejoin:round;stroke-miterlimit:4;stroke-opacity:0.75294327;stroke-dasharray:none;stroke-dashoffset:125.99994999"
       id="path4203"
       sodipodi:cx="-740"
       sodipodi:cy="770.36218"
       sodipodi:rx="166"
       sodipodi:ry="166"
       d="m -574,770.36218 a 166,166 0 1 1 -332,0 166,166 0 1 1 332,0 z"
       transform="translate(42,-210)" />
    <path
       d="m -574,770.36218 a 166,166 0 1 1 -332,0 166,166 0 1 1 332,0 z"
       sodipodi:ry="166"
       sodipodi:rx="166"
       sodipodi:cy="770.36218"
       sodipodi:cx="-740"
       id="path4205"
       style="fill:#ccff00;fill-opacity:1;fill-rule:nonzero;stroke:#ccff00;stroke-width:3;stroke-linejoin:round;stroke-miterlimit:4;stroke-opacity:0.75294327;stroke-dasharray:none;stroke-dashoffset:125.99994999"
       sodipodi:type="arc"
       transform="translate(32,-210)" />
    <path
       transform="translate(-5,980)"
       sodipodi:type="arc"
       style="fill:#ff6600;fill-opacity:1;fill-rule:nonzero;stroke:#ff6600;stroke-width:3;stroke-linejoin:round;stroke-miterlimit:4;stroke-opacity:0.75294327;stroke-dasharray:none;stroke-dashoffset:125.99994999"
       id="path3894-2-8-4-3-2-7-5-5"
       sodipodi:cx="-832"
       sodipodi:cy="188.36218"
       sodipodi:rx="40"
       sodipodi:ry="40"
       d="m -792,188.36218 a 40,40 0 1 1 -80,0 40,40 0 1 1 80,0 z" />
    <g
       id="g3081"
       transform="translate(0,68)">
      <path
         transform="translate(-241,125)"
         d="m -408,725.36218 c 0,62.40818 -50.59182,113 -113,113 -62.40818,0 -113,-50.59182 -113,-113 0,-62.40817 50.59182,-113 113,-113 62.40818,0 113,50.59183 113,113 z"
         sodipodi:ry="113"
         sodipodi:rx="113"
         sodipodi:cy="725.36218"
         sodipodi:cx="-521"
         id="path4208"
         style="fill:#ccff00;fill-opacity:1;fill-rule:nonzero;stroke:#88aa00;stroke-width:3;stroke-linejoin:round;stroke-miterlimit:4;stroke-opacity:0.75294327;stroke-dasharray:none;stroke-dashoffset:125.99994999"
         sodipodi:type="arc" />
      <path
         transform="translate(-107,127)"
         d="m -408,725.36218 c 0,62.40818 -50.59182,113 -113,113 -62.40818,0 -113,-50.59182 -113,-113 0,-62.40817 50.59182,-113 113,-113 62.40818,0 113,50.59183 113,113 z"
         sodipodi:ry="113"
         sodipodi:rx="113"
         sodipodi:cy="725.36218"
         sodipodi:cx="-521"
         id="path4208-7"
         style="fill:#ccff00;fill-opacity:1;fill-rule:nonzero;stroke:#88aa00;stroke-width:3;stroke-linejoin:round;stroke-miterlimit:4;stroke-opacity:0.75294327;stroke-dasharray:none;stroke-dashoffset:125.99994999"
         sodipodi:type="arc" />
    </g>
    <path
       style="fill:#44aa00;fill-opacity:1;fill-rule:nonzero;stroke:#44aa00;stroke-width:3;stroke-linejoin:round;stroke-miterlimit:4;stroke-opacity:0.75294327;stroke-dasharray:none;stroke-dashoffset:125.99994999"
       d="m -487,396.375 c -1.67474,0 -3.33719,0.0133 -5,0.0625 89.36326,2.64703 161,75.93297 161,165.9375 0,90.00446 -71.63683,163.25912 -161,165.90625 1.66287,0.0493 3.32519,0.0937 5,0.0937 91.67927,0 166,-74.32073 166,-166 0,-91.67927 -74.32073,-166 -166,-166 z"
       id="path4203-0"
       inkscape:connector-curvature="0" />
    <path
       style="fill:#ccff00;fill-opacity:1;fill-rule:nonzero;stroke:#88aa00;stroke-width:3;stroke-linejoin:round;stroke-miterlimit:4;stroke-opacity:0.75294327;stroke-dasharray:none;stroke-dashoffset:125.99994999"
       d="m -366.625,835.375 c -28.67593,20.49452 -47.375,54.06597 -47.375,92 0,36.7156 17.49958,69.32833 44.625,89.9687 28.67593,-20.49447 47.375,-54.03467 47.375,-91.9687 0,-36.7156 -17.49958,-69.35958 -44.625,-90 z"
       id="path4208-4"
       inkscape:connector-curvature="0" />
    <g
       id="g4375"
       transform="translate(-155.48023,107.59798)">
      <path
         inkscape:connector-curvature="0"
         id="path4203-0-1"
         d="m -450.5,1126.3622 c -1.67474,0 -3.33719,0.013 -5,0.062 89.36326,2.6471 161,75.933 161,165.9375 0,90.0045 -71.63683,163.2591 -161,165.9063 1.66287,0.049 3.32519,0.094 5,0.094 91.67927,0 166,-74.3208 166,-166 0,-91.6793 -74.32073,-166 -166,-166 z"
         style="fill:#44aa00;fill-opacity:1;fill-rule:nonzero;stroke:#44aa00;stroke-width:3;stroke-linejoin:round;stroke-miterlimit:4;stroke-opacity:0.75294327;stroke-dasharray:none;stroke-dashoffset:125.99994999" />
      <path
         inkscape:connector-curvature="0"
         style="fill:#ff0000;fill-opacity:1;fill-rule:nonzero;stroke:#713b0b;stroke-width:3;stroke-linejoin:round;stroke-miterlimit:4;stroke-opacity:0.75294327;stroke-dasharray:none;stroke-dashoffset:125.99994999"
         d="m -510,1006.3622 c -21.55779,0 -39.10107,17.0534 -39.9375,38.4062 -19.27687,2.8672 -34.0625,19.519 -34.0625,39.5938 0,9.6181 3.3747,18.4441 9.03125,25.3437 -4.43027,6.4389 -7.03125,14.2497 -7.03125,22.6563 0,22.0914 17.90861,40 40,40 1.40195,0 2.7915,-0.078 4.15625,-0.2188 6.54646,13.1677 20.14064,22.2188 35.84375,22.2188 15.85317,0 29.55859,-9.2212 36.03125,-22.5938 6.30497,4.151 13.85557,6.5938 21.96875,6.5938 21.50714,0 39.02465,-16.9989 39.9375,-38.2813 13.07903,-6.5773 22.0625,-20.0807 22.0625,-35.7187 0,-8.6827 -2.76915,-16.7242 -7.46875,-23.2813 0.95163,-3.4198 1.46875,-6.9956 1.46875,-10.7187 0,-21.8718 -17.55565,-39.6488 -39.34375,-40 -6.1696,-14.1339 -20.24887,-24 -36.65625,-24 -8.55779,0 -16.49549,2.673 -23,7.25 -6.50451,-4.577 -14.44221,-7.25 -23,-7.25 z m 23,72.7187 c 6.33747,4.4595 14.03765,7.1161 22.34375,7.25 1.12807,2.5855 2.50063,5.0149 4.125,7.2813 -0.80189,2.8817 -1.27273,5.8956 -1.40625,9 -7.85368,3.9496 -14.25466,10.3945 -18.09375,18.3125 -6.30497,-4.151 -13.85557,-6.5625 -21.96875,-6.5625 -1.40195,0 -2.7915,0.047 -4.15625,0.1875 -1.34477,-2.7014 -2.97982,-5.2509 -4.875,-7.5625 4.15033,-6.032 6.66456,-13.2617 6.96875,-21.0625 6.28118,-0.9343 12.09077,-3.3453 17.0625,-6.8438 z"
         id="path4190" />
      <path
         transform="translate(343,912)"
         sodipodi:type="arc"
         style="fill:#ff6600;fill-opacity:1;fill-rule:nonzero;stroke:#ff6600;stroke-width:3;stroke-linejoin:round;stroke-miterlimit:4;stroke-opacity:0.75294327;stroke-dasharray:none;stroke-dashoffset:125.99994999"
         id="path4192"
         sodipodi:cx="-832"
         sodipodi:cy="188.36218"
         sodipodi:rx="40"
         sodipodi:ry="40"
         d="m -792,188.36218 c 0,22.09139 -17.90861,40 -40,40 -22.09139,0 -40,-17.90861 -40,-40 0,-22.09139 17.90861,-40 40,-40 22.09139,0 40,17.90861 40,40 z" />
      <path
         inkscape:connector-curvature="0"
         id="path4208-4-4"
         d="m -469.36341,1279.0542 c -5.78515,34.7688 4.73125,71.7297 31.55464,98.553 25.96185,25.9619 61.39658,36.6485 95.17218,32.063 5.78508,-34.7689 -4.70919,-71.7076 -31.53257,-98.531 -25.96185,-25.9618 -61.41872,-36.6706 -95.19425,-32.085 z"
         style="fill:#ccff00;fill-opacity:1;fill-rule:nonzero;stroke:#88aa00;stroke-width:3;stroke-linejoin:round;stroke-miterlimit:4;stroke-opacity:0.75294327;stroke-dasharray:none;stroke-dashoffset:125.99994999" />
      <path
         inkscape:connector-curvature="0"
         id="path4208-4-4-2"
         d="m -164.51679,1308.06 c -32.08678,-14.5868 -70.51012,-13.9949 -103.36184,4.9721 -31.79668,18.3578 -51.29034,49.8192 -55.60286,83.6308 32.08691,14.5867 70.48305,14.0105 103.33487,-4.9565 31.79661,-18.3578 51.31741,-49.8348 55.62983,-83.6464 z"
         style="fill:#ccff00;fill-opacity:1;fill-rule:nonzero;stroke:#88aa00;stroke-width:3;stroke-linejoin:round;stroke-miterlimit:4;stroke-opacity:0.75294327;stroke-dasharray:none;stroke-dashoffset:125.99994999" />
    </g>
    <text
       xml:space="preserve"
       style="font-size:40px;font-style:normal;font-variant:normal;font-weight:normal;font-stretch:normal;line-height:125%;letter-spacing:0px;word-spacing:0px;fill:#000000;fill-opacity:1;stroke:none;font-family:Bitstream Charter;-inkscape-font-specification:Bitstream Charter"
       x="-876.81244"
       y="86.554825"
       id="text3014"
       sodipodi:linespacing="125%"><tspan
         sodipodi:role="line"
         id="tspan3016"
         x="-876.81244"
         y="86.554825"
         style="font-style:normal;font-variant:normal;font-weight:normal;font-stretch:normal;font-family:Arimo;-inkscape-font-specification:Arimo">Union</tspan></text>
    <text
       xml:space="preserve"
       style="font-size:40px;font-style:normal;font-variant:normal;font-weight:normal;font-stretch:normal;line-height:125%;letter-spacing:0px;word-spacing:0px;fill:#000000;fill-opacity:1;stroke:none;font-family:Bitstream Charter;-inkscape-font-specification:Bitstream Charter"
       x="-876.81244"
       y="368.03757"
       id="text3014-1"
       sodipodi:linespacing="125%"><tspan
         sodipodi:role="line"
         id="tspan3016-2"
         x="-876.81244"
         y="368.03757"
         style="font-style:normal;font-variant:normal;font-weight:normal;font-stretch:normal;font-family:Arimo;-inkscape-font-specification:Arimo">Différence</tspan></text>
    <text
       xml:space="preserve"
       style="font-size:40px;font-style:normal;font-variant:normal;font-weight:normal;font-stretch:normal;line-height:125%;letter-spacing:0px;word-spacing:0px;fill:#000000;fill-opacity:1;stroke:none;font-family:Bitstream Charter;-inkscape-font-specification:Bitstream Charter"
       x="-876.81244"
       y="783.13904"
       id="text3014-1-2"
       sodipodi:linespacing="125%"><tspan
         sodipodi:role="line"
         id="tspan3016-2-9"
         x="-876.81244"
         y="783.13904"
         style="font-style:normal;font-variant:normal;font-weight:normal;font-stretch:normal;font-family:Arimo;-inkscape-font-specification:Arimo">Intersection</tspan></text>
    <text
       xml:space="preserve"
       style="font-size:40px;font-style:normal;font-variant:normal;font-weight:normal;font-stretch:normal;line-height:125%;letter-spacing:0px;word-spacing:0px;fill:#000000;fill-opacity:1;stroke:none;font-family:Bitstream Charter;-inkscape-font-specification:Bitstream Charter"
       x="-876.81244"
       y="1093.8895"
       id="text3014-1-2-3"
       sodipodi:linespacing="125%"><tspan
         sodipodi:role="line"
         id="tspan3016-2-9-6"
         x="-876.81244"
         y="1093.8895"
         style="font-style:normal;font-variant:normal;font-weight:normal;font-stretch:normal;font-family:Arimo;-inkscape-font-specification:Arimo">Combinaison</tspan></text>
  </g>
</svg>
